
        <svg xmlns="http://www.w3.org/2000/svg" xmlns:xlink="http://www.w3.org/1999/xlink" version="1.1" width="3179.1044776119397" 
        height="1645.5223880597014" viewBox="0 0 3179.1044776119397 1645.5223880597014">
			
			<g transform="scale(8.955223880597014) translate(10, 10)">
				<defs id="SvgjsDefs5355"></defs><g id="SvgjsG5356" featureKey="symbolContainer" transform="matrix(2.5560852997962904,0,0,2.5560852997962904,27.000018807798714,20.01066793863929)" fill="#ec2552"><path xmlns="http://www.w3.org/2000/svg" d="M23.11 55.78L1.69 43.41A3.39 3.39 0 0 1 0 40.48V15.75a3.39 3.39 0 0 1 1.69-2.94L23.11.45a3.39 3.39 0 0 1 3.39 0l21.41 12.37a3.39 3.39 0 0 1 1.69 2.94v24.72a3.39 3.39 0 0 1-1.69 2.94L26.5 55.78a3.39 3.39 0 0 1-3.39 0z"></path></g><g id="SvgjsG5357" featureKey="monogramFeature-0" transform="matrix(2.124140264125851,0,0,2.124140264125851,58.74985376703709,10.888004541704625)" fill="#fcfcfc"><path d="M8.886 59.94539 c-0.34383 0 -0.6876 -0.10506 -1.053 -0.31623 l-5.2511 -3.0354 c-0.7302 -0.4224 -1.0518 -0.9798 -1.0518 -1.8234 l0 -29.643 c0 -0.8436 0.32162 -1.401 1.0518 -1.8234 l11.342 -6.5556 c0.23039 -0.13858 0.49981 -0.21838 0.7878 -0.21838 c0.8448 0 1.53 0.6852 1.53 1.53 c0 0.57598 -0.31858 1.0776 -0.78894 1.3386 l-10.862 6.279 l0 28.542 l4.296 2.4834 l10.122 -5.8506 l0 -5.8524 c0 -0.8448 0.6852 -1.53 1.53 -1.53 s1.53 0.6852 1.53 1.53 l0 6.4026 c0 0.8436 -0.32162 1.401 -1.0524 1.8174 l-11.077 6.4086 c-0.36539 0.21117 -0.7092 0.31676 -1.0531 0.31676 z M20.538 60.00052735 c-0.8448 0 -1.5307 -0.68694 -1.5307 -1.5317 c0 -0.57598 0.31858 -1.0776 0.78894 -1.3386 l5.037 -2.9112 l0 -11.704 l-4.296 -2.4834 l-5.0382 2.9124 c-0.23039 0.13858 -0.49981 0.21838 -0.7878 0.21838 c-0.8448 0 -1.53 -0.6852 -1.53 -1.53 c0 -0.57598 0.31858 -1.0776 0.78894 -1.3386 l5.514 -3.1872 c0.36539 -0.21117 0.7092 -0.31676 1.0531 -0.31676 s0.68766 0.10559 1.0531 0.31676 l5.2511 3.0354 c0.7302 0.4224 1.0518 0.9798 1.0518 1.8234 l0 12.805 c0 0.8436 -0.32162 1.401 -1.0518 1.8234 l-5.5158 3.1884 c-0.23039 0.13858 -0.49981 0.21838 -0.7878 0.21838 z M8.877 53.2656 c-1.0092 0 -1.5302 -0.8886 -1.5302 -1.5379 l0.0072072 -23.234 c0 -0.8436 0.32162 -1.401 1.0524 -1.8234 l11.077 -6.4026 c0.36539 -0.21117 0.7092 -0.31676 1.0531 -0.31676 s0.68766 0.10559 1.0531 0.31676 l5.2511 3.0354 c0.7308 0.4224 1.0536 0.9798 1.053 1.8234 l-0.006621 6.4032 c0 0.8256 -0.681 1.5306 -1.533 1.5306 c-0.25981 0 -0.5226 -0.065976 -0.76374 -0.20519 l-5.0539 -2.9268 l-5.0382 2.9118 c-0.22981 0.13858 -0.49922 0.21838 -0.7872 0.21838 c-0.8448 0 -1.53 -0.6852 -1.53 -1.53 c0 -0.57598 0.31858 -1.0776 0.78894 -1.3386 l5.514 -3.1872 c0.36539 -0.21117 0.7092 -0.31676 1.0531 -0.31676 s0.68766 0.10559 1.0531 0.31676 l3.243 1.8744 l0 -3.2004 l-4.296 -2.4834 l-10.121 5.8506 l0 20.038 l3.5082 -2.028 c0.23039 -0.13858 0.49981 -0.21838 0.7878 -0.21838 c0.8448 0 1.53 0.6852 1.53 1.53 c0 0.57598 -0.32279 1.0698 -0.78894 1.3392 l-5.8074 3.3546 c-0.23338 0.13441 -0.49858 0.20584 -0.768 0.20584 z"></path></g><g id="SvgjsG5358" featureKey="nameFeature-0" transform="matrix(0.7972891851397893,0,0,0.7972891851397893,165.08650530936342,59.60115733515615)" fill="#192744"><path d="M29.96 14 l-2.8 3.28 q-1.64 -1.68 -3.92 -2.64 t-4.8 -0.96 q-3.28 0 -5.98 1.48 t-4.22 4.04 q-1.56 2.68 -1.56 5.96 q0 3.12 1.68 5.76 q1.6 2.48 4.3 3.94 t5.82 1.46 q2.2 0 4.22 -0.76 t3.62 -2.12 l0 -5.44 l-3.84 0 l-1.88 -4.32 l10.04 0 l0 11.6 q-2.28 2.56 -5.46 3.98 t-6.74 1.42 q-4.44 0 -8.16 -2.16 q-3.64 -2.08 -5.72 -5.72 q-2.16 -3.72 -2.16 -8.16 q0 -4.28 2.28 -7.88 q2.16 -3.44 5.86 -5.46 t7.94 -2.02 q3.32 0 6.32 1.28 q2.92 1.2 5.16 3.44 z M62.176 40 l-20.92 0 l0 -29.84 l4.36 0 l0 25.48 l16.56 0 l0 4.36 z M96.39200000000001 24.880000000000003 q0 -3.2 -1.64 -5.8 q-1.56 -2.52 -4.26 -3.96 t-5.86 -1.44 q-3.28 0 -5.98 1.48 t-4.22 4.04 q-1.56 2.68 -1.56 5.96 q0 3.12 1.68 5.76 q1.6 2.48 4.3 3.94 t5.84 1.46 t5.84 -1.52 t4.26 -4.08 q1.6 -2.68 1.6 -5.84 z M100.71200000000002 25.119999999999997 q0 4.32 -2.24 7.96 q-2.16 3.48 -5.86 5.54 t-7.98 2.06 q-4.44 0 -8.16 -2.16 q-3.64 -2.08 -5.72 -5.72 q-2.16 -3.72 -2.16 -8.16 q0 -4.28 2.28 -7.88 q2.16 -3.44 5.86 -5.46 t7.94 -2.02 q4.36 0 8.08 2.12 q3.64 2.08 5.76 5.64 q2.2 3.72 2.2 8.08 z M115.048 14.559999999999999 l0 9.12 q1.24 -0.72 2.8 -1 q1.16 -0.2 2.88 -0.2 l5.12 0 q2.08 0 3.26 -1.04 t1.18 -3.08 q0 -3.8 -4.44 -3.8 l-10.8 0 z M115.048 28.119999999999997 l0 7.52 l11.24 0 q1.32 0 2.52 -0.48 q1.32 -0.48 2.08 -1.4 q0.88 -1.08 0.88 -2.48 q0 -2.4 -1.88 -3.48 q-1.48 -0.88 -4.04 -0.88 l-5.12 0 q-3.44 0 -5.68 1.2 z M136.088 31.84 q0 2.8 -1.56 4.76 q-1.36 1.72 -3.84 2.6 q-2.2 0.8 -4.84 0.8 l-15.12 0 l0 -29.84 l15.12 0 q2.56 0 4.54 0.96 t3.1 2.76 q1.16 1.88 1.16 4.44 q0 1.96 -0.7 3.5 t-1.98 2.38 q1.72 0.8 2.84 2.64 q1.28 2.12 1.28 5 z M155.824 13.32 l-1.64 -3.68 l4.8 0 l14.36 30.36 l-4.88 0 l-1.96 -4.36 l-9.08 0 q-2.56 0 -4.6 0.48 q-1.8 0.44 -3 1.16 q-1.08 0.64 -1.44 1.32 l-0.76 1.4 l-4.72 0 z M159.024 31.240000000000002 l5.52 0 l-6.52 -12.6 l-6.6 14.28 q0.88 -0.76 2.68 -1.2 q2.04 -0.48 4.92 -0.48 z M203.08 40 l-20.92 0 l0 -29.84 l4.36 0 l0 25.48 l16.56 0 l0 4.36 z"></path></g><g id="SvgjsG5359" featureKey="sloganFeature-0" transform="matrix(0.9718453824570051,0,0,0.9718453824570051,160.56589802358758,97.27685216504317)" fill="#192744"><path d="M14.1205 20 l-7.5 0 l0 -15 l7.36 0 l0 1.52 l-5.98 0 l0 5.16 l5.94 0 l0 1.3 l-5.94 0 l0 5.5 l6.12 0 l0 1.52 z M27.721 20 l-1.74 0 l-3.1 -6.88 l-3.08 6.88 l-1.76 0 l3.58 -7.5 l-3.58 -7.5 l1.76 0 l3.08 6.88 l3.1 -6.88 l1.74 0 l-3.58 7.5 z M39.8815 9.8 c0 0.66666 -0.10662 1.2867 -0.31996 1.86 s-0.51334 1.07 -0.9 1.49 s-0.86 0.75 -1.42 0.99 s-1.18 0.36 -1.86 0.36 l-1.86 0 l0 5.5 l-1.5 0 l0 -15 l3.64 0 c0.73334 0 1.3633 0.12334 1.89 0.37 s0.96332 0.58332 1.31 1.01 s0.60332 0.93332 0.76998 1.52 s0.25 1.22 0.25 1.9 z M38.36150000000001 9.76 c0 -1.08 -0.22334 -1.91 -0.67 -2.49 s-1.25 -0.87 -2.41 -0.87 l-1.76 0 l0 6.64 l1.56 0 c1.08 0 1.8967 -0.28 2.45 -0.84 s0.83 -1.3733 0.83 -2.44 z M53.382000000000005 20 l-1.72 -0.000019531 l-3.14 -6.06 l-2.6 0 l0 6.06 l-1.34 0 l0 -15 l3.44 0 c1.3733 0 2.46 0.39334 3.26 1.18 s1.2 1.8667 1.2 3.24 c0 0.42666 -0.05666 0.86 -0.17 1.3 s-0.27668 0.85334 -0.49002 1.24 s-0.47668 0.73666 -0.79002 1.05 s-0.67 0.55668 -1.07 0.73002 z M51.06200000000001 9.32 c0 -0.46666 -0.08 -0.88664 -0.24 -1.26 s-0.38 -0.69 -0.66 -0.95 s-0.61334 -0.46 -1 -0.6 s-0.80666 -0.21 -1.26 -0.21 l-1.98 0 l0 6.26 l2.1 0 c1.0667 0 1.84 -0.28666 2.32 -0.86 s0.72 -1.3667 0.72 -2.38 z M65.3225 20 l-7.5 0 l0 -15 l7.36 0 l0 1.52 l-5.98 0 l0 5.16 l5.94 0 l0 1.3 l-5.94 0 l0 5.5 l6.12 0 l0 1.52 z M77.003 16.12 c0 1.2267 -0.3199 2.21 -0.9599 2.95 s-1.5933 1.11 -2.86 1.11 c-0.74666 0 -1.3767 -0.10666 -1.89 -0.32 s-0.93 -0.52 -1.25 -0.92 s-0.55 -0.88 -0.69 -1.44 s-0.20334 -1.1867 -0.19 -1.88 l0.02 -0.52 l1.54 0 c0 0.42666 0.01334 0.86332 0.04 1.31 s0.11332 0.85332 0.25998 1.22 s0.37332 0.66666 0.67998 0.9 s0.74666 0.35 1.32 0.35 c0.88 0 1.5267 -0.23334 1.94 -0.7 s0.62 -1.12 0.62 -1.96 c0 -0.66666 -0.16 -1.1933 -0.48 -1.58 s-0.72 -0.71332 -1.2 -0.97998 s-0.99666 -0.50666 -1.55 -0.72 s-1.07 -0.48 -1.55 -0.8 s-0.88 -0.73 -1.2 -1.23 s-0.48 -1.1633 -0.48 -1.99 c0 -1.3333 0.34334 -2.3434 1.03 -3.03 s1.6967 -1.03 3.03 -1.03 c0.62666 0 1.17 0.1 1.63 0.3 s0.84334 0.48 1.15 0.84 s0.53332 0.78666 0.67998 1.28 s0.22 1.04 0.22 1.64 l0 1.26 l-1.46 0 c0 -0.44 -0.0033398 -0.89666 -0.01 -1.37 s-0.07666 -0.90668 -0.21 -1.3 s-0.35668 -0.71668 -0.67002 -0.97002 s-0.77 -0.38 -1.37 -0.38 c-0.86666 0 -1.52 0.22 -1.96 0.66 s-0.64666 1.0867 -0.62 1.94 l0 0.2 c0.01334 0.41334 0.08334 0.75668 0.21 1.03 s0.3 0.50668 0.52 0.70002 s0.47666 0.36334 0.77 0.51 s0.61334 0.3 0.96 0.46 c0.50666 0.22666 1 0.46666 1.48 0.72 s0.90334 0.55 1.27 0.89 s0.66332 0.74 0.88998 1.2 s0.34 1.01 0.34 1.65 z M89.20349999999999 16.12 c0 1.2267 -0.3199 2.21 -0.9599 2.95 s-1.5933 1.11 -2.86 1.11 c-0.74666 0 -1.3767 -0.10666 -1.89 -0.32 s-0.93 -0.52 -1.25 -0.92 s-0.55 -0.88 -0.69 -1.44 s-0.20334 -1.1867 -0.19 -1.88 l0.02 -0.52 l1.54 0 c0 0.42666 0.01334 0.86332 0.04 1.31 s0.11332 0.85332 0.25998 1.22 s0.37332 0.66666 0.67998 0.9 s0.74666 0.35 1.32 0.35 c0.88 0 1.5267 -0.23334 1.94 -0.7 s0.62 -1.12 0.62 -1.96 c0 -0.66666 -0.16 -1.1933 -0.48 -1.58 s-0.72 -0.71332 -1.2 -0.97998 s-0.99666 -0.50666 -1.55 -0.72 s-1.07 -0.48 -1.55 -0.8 s-0.88 -0.73 -1.2 -1.23 s-0.48 -1.1633 -0.48 -1.99 c0 -1.3333 0.34334 -2.3434 1.03 -3.03 s1.6967 -1.03 3.03 -1.03 c0.62666 0 1.17 0.1 1.63 0.3 s0.84334 0.48 1.15 0.84 s0.53332 0.78666 0.67998 1.28 s0.22 1.04 0.22 1.64 l0 1.26 l-1.46 0 c0 -0.44 -0.0033398 -0.89666 -0.01 -1.37 s-0.07666 -0.90668 -0.21 -1.3 s-0.35668 -0.71668 -0.67002 -0.97002 s-0.77 -0.38 -1.37 -0.38 c-0.86666 0 -1.52 0.22 -1.96 0.66 s-0.64666 1.0867 -0.62 1.94 l0 0.2 c0.01334 0.41334 0.08334 0.75668 0.21 1.03 s0.3 0.50668 0.52 0.70002 s0.47666 0.36334 0.77 0.51 s0.61334 0.3 0.96 0.46 c0.50666 0.22666 1 0.46666 1.48 0.72 s0.90334 0.55 1.27 0.89 s0.66332 0.74 0.88998 1.2 s0.34 1.01 0.34 1.65 z M107.96449999999997 14.8 c-0.01334 0.74666 -0.040038 1.4466 -0.080038 2.1 s-0.17666 1.2233 -0.41 1.71 s-0.60334 0.87 -1.11 1.15 s-1.2267 0.42 -2.16 0.42 c-0.65334 0 -1.2067 -0.09666 -1.66 -0.29 s-0.82 -0.46668 -1.1 -0.82002 s-0.48334 -0.78 -0.61 -1.28 s-0.19 -1.0567 -0.19 -1.67 l0 -7.2 c0 -0.65334 0.06666 -1.2333 0.2 -1.74 s0.35 -0.93332 0.65 -1.28 s0.69 -0.60666 1.17 -0.78 s1.0667 -0.26 1.76 -0.26 c0.84 0 1.4933 0.14334 1.96 0.43 s0.81666 0.67 1.05 1.15 s0.37668 1.03 0.43002 1.65 s0.08668 1.2633 0.10002 1.93 l-1.32 0 c0 -0.44 -0.0033398 -0.89334 -0.01 -1.36 s-0.07332 -0.89 -0.19998 -1.27 s-0.34666 -0.69334 -0.66 -0.94 s-0.77668 -0.37 -1.39 -0.37 c-0.46666 0 -0.85666 0.06666 -1.17 0.2 s-0.56 0.32668 -0.74 0.58002 s-0.30666 0.55334 -0.38 0.9 s-0.11 0.73332 -0.11 1.16 l0.04 7.3 c0 0.4 0.03 0.76334 0.09 1.09 s0.17 0.60666 0.33 0.84 s0.38334 0.41334 0.67 0.54 s0.65 0.19 1.09 0.19 c0.68 0 1.1867 -0.11666 1.52 -0.35 s0.56668 -0.54334 0.70002 -0.93 s0.20334 -0.82332 0.21 -1.31 s0.01 -0.98332 0.01 -1.49 l1.32 0 z M120.725 16.12 c0 1.4133 -0.31666 2.4434 -0.95 3.09 s-1.6633 0.97 -3.09 0.97 c-1.3067 0 -2.2634 -0.36 -2.87 -1.08 s-0.91 -1.7133 -0.91 -2.98 l0 -7.2 c0 -1.3733 0.32334 -2.3934 0.97 -3.06 s1.6633 -1 3.05 -1 c1.32 0 2.2834 0.35 2.89 1.05 s0.91 1.69 0.91 2.97 l0 7.24 z M119.32499999999999 16.08 l-0.000019531 -7.22 c0 -0.76 -0.2 -1.3933 -0.6 -1.9 s-1.0067 -0.76 -1.82 -0.76 c-0.97334 0 -1.65 0.25334 -2.03 0.76 s-0.57 1.22 -0.57 2.14 l0 6.9 c0 0.38666 0.04334 0.75 0.13 1.09 s0.22666 0.63666 0.42 0.89 s0.44 0.45334 0.74 0.6 s0.66334 0.22 1.09 0.22 c0.93334 0 1.6067 -0.22666 2.02 -0.68 s0.62 -1.1333 0.62 -2.04 z M133.6855 16.12 c0 1.3333 -0.32336 2.3434 -0.97002 3.03 s-1.6433 1.03 -2.99 1.03 c-1.28 0 -2.2434 -0.36666 -2.89 -1.1 s-0.97 -1.72 -0.97 -2.96 l0 -11.12 l1.42 0 l0 11.06 c0 0.37334 0.05 0.72334 0.15 1.05 s0.25 0.61332 0.45 0.85998 s0.45 0.44 0.75 0.58 s0.65 0.21 1.05 0.21 c0.97334 0 1.65 -0.27 2.03 -0.81 s0.57 -1.2633 0.57 -2.17 l0 -10.78 l1.4 0 l0 11.12 z M147.706 20 l-1.72 -0.000019531 l-3.14 -6.06 l-2.6 0 l0 6.06 l-1.34 0 l0 -15 l3.44 0 c1.3733 0 2.46 0.39334 3.26 1.18 s1.2 1.8667 1.2 3.24 c0 0.42666 -0.05666 0.86 -0.17 1.3 s-0.27668 0.85334 -0.49002 1.24 s-0.47668 0.73666 -0.79002 1.05 s-0.67 0.55668 -1.07 0.73002 z M145.38599999999997 9.32 c0 -0.46666 -0.08 -0.88664 -0.24 -1.26 s-0.38 -0.69 -0.66 -0.95 s-0.61334 -0.46 -1 -0.6 s-0.80666 -0.21 -1.26 -0.21 l-1.98 0 l0 6.26 l2.1 0 c1.0667 0 1.84 -0.28666 2.32 -0.86 s0.72 -1.3667 0.72 -2.38 z M153.64649999999997 20 l-1.5 0 l0 -15 l1.5 0 l0 15 z M166.22699999999998 20 l-7.5 0 l0 -15 l7.36 0 l0 1.52 l-5.98 0 l0 5.16 l5.94 0 l0 1.3 l-5.94 0 l0 5.5 l6.12 0 l0 1.52 z M179.48749999999998 20 l-1.72 -0.000019531 l-3.14 -6.06 l-2.6 0 l0 6.06 l-1.34 0 l0 -15 l3.44 0 c1.3733 0 2.46 0.39334 3.26 1.18 s1.2 1.8667 1.2 3.24 c0 0.42666 -0.05666 0.86 -0.17 1.3 s-0.27668 0.85334 -0.49002 1.24 s-0.47668 0.73666 -0.79002 1.05 s-0.67 0.55668 -1.07 0.73002 z M177.16749999999996 9.32 c0 -0.46666 -0.08 -0.88664 -0.24 -1.26 s-0.38 -0.69 -0.66 -0.95 s-0.61334 -0.46 -1 -0.6 s-0.80666 -0.21 -1.26 -0.21 l-1.98 0 l0 6.26 l2.1 0 c1.0667 0 1.84 -0.28666 2.32 -0.86 s0.72 -1.3667 0.72 -2.38 z"></path></g>
			</g>
		</svg>
	